<?xml version="1.0" encoding="UTF-8" standalone="no"?>
<!DOCTYPE svg PUBLIC "-//W3C//DTD SVG 1.1//EN" "http://www.w3.org/Graphics/SVG/1.1/DTD/svg11.dtd">
<!-- Created with Vectornator (http://vectornator.io/) -->
<svg height="100%" stroke-miterlimit="10" style="fill-rule:nonzero;clip-rule:evenodd;stroke-linecap:round;stroke-linejoin:round;" version="1.1" viewBox="0 0 192.756 192.756" width="100%" xml:space="preserve" xmlns="http://www.w3.org/2000/svg" xmlns:vectornator="http://vectornator.io" xmlns:xlink="http://www.w3.org/1999/xlink">
<defs/>
<g id="Untitled" vectornator:layerName="Untitled">
<g opacity="1" vectornator:layerName="g">
<path d="M184.252 96.379C184.252 67.649 160.961 44.358 132.232 44.358C119.765 44.358 108.421 48.721 99.462 56.034C106.296 62.632 111.513 70.893 114.312 80.231L109.99 80.231C107.281 71.929 102.523 64.604 96.338 58.726C95.6275 59.4027 94.9373 60.0982 94.2682 60.8116C91.1611 64.1246 88.5072 67.8238 86.3685 71.811C84.9319 74.4893 83.7278 77.2976 82.775 80.206L78.452 80.206C81.2125 71.0392 86.2714 62.7306 93.148 56.07C92.5686 55.6007 91.9793 55.1431 91.3804 54.6975C82.7424 48.2705 72.1172 44.357 60.524 44.357C31.795 44.357 8.503 67.648 8.503 96.378C8.503 125.107 31.794 148.398 60.524 148.398C72.92 148.398 83.9231 144.029 92.8601 136.791C86.0791 130.213 81.239 121.835 78.452 112.55L82.775 112.55C85.452 120.721 90.1119 128.1 96.338 134.03C102.524 128.151 107.281 120.827 109.99 112.524L114.312 112.524C111.513 121.862 106.296 130.124 99.462 136.721C108.421 144.033 119.765 148.397 132.232 148.397C160.961 148.398 184.252 125.107 184.252 96.379Z" fill="none" opacity="1" stroke="#ffffff" stroke-linecap="butt" stroke-linejoin="round" stroke-width="3" vectornator:layerName="path"/>
<path d="M146.02 108.564L149.612 89.316L154.153 89.316L154.628 91.213C155.442 90.263 157.001 89.316 159.644 89.316L158.222 94.33C156.933 94.33 154.493 93.993 152.935 99.753L151.308 108.564C151.308 108.564 146.02 108.564 146.02 108.564ZM76.415 84.424L81.649 84.424L80.575 89.524L83.392 89.524L82.454 93.684L79.77 93.684L78.293 101.467C78.024 102.944 78.159 104.287 81.179 103.817L80.843 107.708C79.702 108.446 78.159 108.649 76.95 108.649C75.743 108.649 71.783 107.909 72.791 102.676C72.791 102.676 76.415 84.424 76.415 84.424ZM99.096 99.992C99.7 96.904 101.11 89.256 91.917 89.256C83.461 89.256 82.388 97.643 82.187 98.85C81.986 100.059 81.852 108.58 90.91 108.58C93.125 108.648 96.346 108.379 97.622 107.707L98.427 103.75C97.622 103.949 94.601 104.219 92.52 104.219C90.441 104.219 87.086 104.354 87.689 99.992C87.689 99.992 99.096 99.992 99.096 99.992ZM71.451 93.819L72.658 89.926C70.175 88.987 68.23 89.189 67.491 89.189C66.752 89.189 60.469 89.112 59.506 93.752C58.768 97.309 60.07 98.78 61.318 99.321C63.332 100.194 64.473 100.999 65.547 101.536C66.875 102.2 66.631 104.421 64.875 104.421C64.069 104.421 60.581 104.823 57.964 103.95L57.226 107.909C59.642 108.581 61.586 108.581 63.4 108.581C64.674 108.581 70.915 108.917 71.786 103.145C72.212 100.331 70.981 99.051 69.974 98.45C68.968 97.778 67.29 96.839 66.217 96.368C65.143 95.899 64.338 94.088 66.284 93.551C67.491 93.416 69.973 93.416 71.451 93.819ZM37.497 108.58L41.858 85.363L33.27 85.363L26.894 99.455L25.887 85.363L17.5 85.363L13.004 108.58L18.237 108.58L21.458 91.805L22.868 108.58L27.833 108.58L35.148 92.208L32.061 108.58C32.061 108.58 37.497 108.58 37.497 108.58ZM43.266 89.86L42.461 94.02C43.737 93.887 47.159 93.35 48.97 93.416C50.783 93.483 52.795 93.215 52.191 96.1C50.849 96.235 41.455 94.758 39.98 102.809C39.376 106.77 42.797 108.782 45.481 108.649C48.165 108.514 48.903 108.178 49.843 107.506L50.514 108.58L55.411 108.58L57.492 98.113C58.029 95.496 58.9 89.188 50.111 89.188C48.501 89.256 46.69 89.188 43.266 89.86ZM128.084 90.731C126.74 89.925 125.803 89.792 124.057 89.792C122.313 89.792 118.42 91.459 117.684 96.167C116.811 101.736 120.635 104.486 126.004 102.676L127.547 107.373C125.803 108.178 124.057 108.58 121.172 108.58C115.736 108.58 109.832 103.75 112.516 93.952C114.495 86.733 120.704 84.089 124.327 84.223C128.62 84.383 130.165 85.833 131.507 87.31C131.507 87.31 128.084 90.731 128.084 90.731ZM172.707 91.536C171.699 90.799 171.098 89.256 168.613 89.256C165.728 89.256 161.232 88.719 158.683 97.442C156.978 103.272 160.427 108.581 164.183 108.581C165.929 108.515 167.673 107.776 168.745 107.038L169.419 108.581L175.054 108.581L179.618 84.157L174.114 84.157C174.114 84.157 172.707 91.536 172.707 91.536ZM131.842 89.86L131.035 94.02C132.312 93.887 135.732 93.35 137.545 93.416C139.357 93.483 141.371 93.215 140.766 96.1C139.424 96.235 130.03 94.758 128.555 102.809C127.95 106.77 131.371 108.782 134.055 108.649C136.741 108.514 137.477 108.178 138.418 107.506L139.09 108.58L143.986 108.58L146.068 98.113C146.605 95.496 147.476 89.188 138.685 89.188C137.076 89.256 135.264 89.188 131.842 89.86Z" fill="#ffffff" fill-rule="evenodd" opacity="1" stroke="none" vectornator:layerName="path"/>
<path d="M88.024 96.503L94.533 96.503C94.869 94.624 94.265 93.013 92.185 93.013C90.104 93.013 88.628 94.087 88.024 96.503ZM51.32 99.992C50.447 99.855 48.501 99.32 46.823 100.461C45.145 101.602 44.676 103.613 46.421 104.287C48.1 104.932 50.579 103.818 50.917 102.07C50.917 102.07 51.32 99.992 51.32 99.992ZM170.828 99.387C171.365 97.643 171.072 95.465 170.492 94.692C168.883 92.545 165.18 94.242 164.051 98.45C163.313 101.2 164.924 103.28 166.735 103.28C168.682 103.279 169.889 101.736 170.828 99.387ZM139.895 99.992C139.022 99.855 137.077 99.32 135.399 100.461C133.721 101.602 133.251 103.613 134.997 104.287C136.677 104.932 139.155 103.818 139.491 102.07C139.491 102.07 139.895 99.992 139.895 99.992Z" fill="#008eff" fill-rule="evenodd" opacity="1" stroke="none" vectornator:layerName="path"/>
<path d="M99.246 108.58L102.803 89.524L107.299 89.524L107.768 91.403C108.575 90.463 110.118 89.524 112.733 89.524L111.391 94.557C110.118 94.557 107.633 94.155 106.09 99.856L104.481 108.581L99.246 108.581L99.246 108.58Z" fill="#ffffff" fill-rule="evenodd" opacity="1" stroke="none" vectornator:layerName="path"/>
</g>
</g>
</svg>
